<?xml version="1.0" encoding="UTF-8"?>
<svg version="1.1" xmlns="http://www.w3.org/2000/svg" width="1024" height="1024">
<path d="M0 0 C337.92 0 675.84 0 1024 0 C1024 337.92 1024 675.84 1024 1024 C686.08 1024 348.16 1024 0 1024 C0 686.08 0 348.16 0 0 Z " fill="#FDFEFE" transform="translate(0,0)"/>
<path d="M0 0 C0.70682922 0.00059418 1.41365845 0.00118835 2.14190674 0.00180054 C29.36315606 0.08927394 54.0618209 6.0838459 78.875 17.25 C80.06005127 17.78028809 80.06005127 17.78028809 81.26904297 18.32128906 C91.47611092 22.96519856 100.78005624 28.7097601 109.875 35.25 C110.43864258 35.64993164 111.00228516 36.04986328 111.58300781 36.46191406 C146.10335672 61.24007704 171.15634501 98.79181358 182.125 139.6875 C182.37137207 140.59185791 182.61774414 141.49621582 182.87158203 142.42797852 C186.47301928 156.47408158 187.20636224 170.41133328 187.13574219 184.83276367 C187.12496749 187.44538329 187.13573719 190.05732216 187.1484375 192.66992188 C187.15664472 202.04872814 186.7088358 211.01744335 184.875 220.25 C184.65602051 221.43444702 184.65602051 221.43444702 184.43261719 222.64282227 C175.05268774 271.71171546 146.53349118 314.31331596 105.609375 342.76953125 C99.28535155 347.0474487 92.63316849 350.71073728 85.875 354.25 C84.75351562 354.84425781 83.63203125 355.43851563 82.4765625 356.05078125 C44.75434301 374.82557013 -3.06917457 381.44236519 -44.125 370.25 C-45.35355713 369.93651611 -45.35355713 369.93651611 -46.60693359 369.61669922 C-72.95452299 362.82765621 -97.18087655 350.62349681 -118.125 333.25 C-118.68348633 332.79689453 -119.24197266 332.34378906 -119.81738281 331.87695312 C-138.64120523 316.58718539 -153.37450386 298.43245992 -165.125 277.25 C-165.47159668 276.62544922 -165.81819336 276.00089844 -166.17529297 275.35742188 C-172.13201733 264.44562056 -176.38933356 253.09037363 -180.125 241.25 C-180.33640625 240.5811377 -180.5478125 239.91227539 -180.765625 239.22314453 C-186.12791416 221.82740747 -187.6947686 203.99345928 -187.5625 185.875 C-187.55793793 184.53702866 -187.55793793 184.53702866 -187.55328369 183.17202759 C-187.48460632 169.512709 -186.72145397 156.49173843 -183.125 143.25 C-182.91069336 142.41887695 -182.69638672 141.58775391 -182.47558594 140.73144531 C-174.42686404 109.93073226 -159.19632981 82.2424447 -137.125 59.25 C-136.65465332 58.7432373 -136.18430664 58.23647461 -135.69970703 57.71435547 C-109.96821813 30.04055945 -75.14380757 10.80390116 -38.125 3.25 C-37.35961914 3.08918945 -36.59423828 2.92837891 -35.80566406 2.76269531 C-23.91965149 0.37762452 -12.08441878 -0.0112262 0 0 Z " fill="#97C046" transform="translate(512.125,252.75)"/>
<path d="M0 0 C0.70682922 0.00059418 1.41365845 0.00118835 2.14190674 0.00180054 C29.36315606 0.08927394 54.0618209 6.0838459 78.875 17.25 C80.06005127 17.78028809 80.06005127 17.78028809 81.26904297 18.32128906 C91.47611092 22.96519856 100.78005624 28.7097601 109.875 35.25 C110.43864258 35.64993164 111.00228516 36.04986328 111.58300781 36.46191406 C146.10335672 61.24007704 171.15634501 98.79181358 182.125 139.6875 C182.37137207 140.59185791 182.61774414 141.49621582 182.87158203 142.42797852 C186.47301928 156.47408158 187.20636224 170.41133328 187.13574219 184.83276367 C187.12496749 187.44538329 187.13573719 190.05732216 187.1484375 192.66992188 C187.15664472 202.04872814 186.7088358 211.01744335 184.875 220.25 C184.65602051 221.43444702 184.65602051 221.43444702 184.43261719 222.64282227 C175.05268774 271.71171546 146.53349118 314.31331596 105.609375 342.76953125 C99.28535155 347.0474487 92.63316849 350.71073728 85.875 354.25 C84.75351562 354.84425781 83.63203125 355.43851563 82.4765625 356.05078125 C44.75434301 374.82557013 -3.06917457 381.44236519 -44.125 370.25 C-45.35355713 369.93651611 -45.35355713 369.93651611 -46.60693359 369.61669922 C-72.95452299 362.82765621 -97.18087655 350.62349681 -118.125 333.25 C-118.68348633 332.79689453 -119.24197266 332.34378906 -119.81738281 331.87695312 C-138.64120523 316.58718539 -153.37450386 298.43245992 -165.125 277.25 C-165.47159668 276.62544922 -165.81819336 276.00089844 -166.17529297 275.35742188 C-172.13201733 264.44562056 -176.38933356 253.09037363 -180.125 241.25 C-180.33640625 240.5811377 -180.5478125 239.91227539 -180.765625 239.22314453 C-186.12791416 221.82740747 -187.6947686 203.99345928 -187.5625 185.875 C-187.55793793 184.53702866 -187.55793793 184.53702866 -187.55328369 183.17202759 C-187.48460632 169.512709 -186.72145397 156.49173843 -183.125 143.25 C-182.91069336 142.41887695 -182.69638672 141.58775391 -182.47558594 140.73144531 C-174.42686404 109.93073226 -159.19632981 82.2424447 -137.125 59.25 C-136.65465332 58.7432373 -136.18430664 58.23647461 -135.69970703 57.71435547 C-109.96821813 30.04055945 -75.14380757 10.80390116 -38.125 3.25 C-37.35961914 3.08918945 -36.59423828 2.92837891 -35.80566406 2.76269531 C-23.91965149 0.37762452 -12.08441878 -0.0112262 0 0 Z M-109.125 76.25 C-109.85074219 76.89066406 -110.57648438 77.53132813 -111.32421875 78.19140625 C-136.58458206 101.86306746 -154.32800921 140.05185025 -155.48579407 174.65565491 C-155.54961309 178.29240798 -155.53879532 181.9255383 -155.5 185.5625 C-155.49601196 186.32525238 -155.49202393 187.08800476 -155.48791504 187.87387085 C-155.22272221 231.20966501 -138.24882861 269.63261167 -107.55761719 300.11767578 C-97.51084404 309.86642867 -86.34865607 317.48333325 -74.125 324.25 C-73.48691406 324.60336426 -72.84882813 324.95672852 -72.19140625 325.32080078 C-39.21216139 343.2951528 3.51151924 348.68106886 39.875 338.25 C64.77477295 330.70118034 86.66129579 318.80267889 105.875 301.25 C106.40834961 300.76724609 106.94169922 300.28449219 107.49121094 299.78710938 C134.05894869 275.43733892 153.22709509 238.23016639 155.13183594 201.95214844 C155.95164124 182.31608856 155.53644959 163.21492188 149.875 144.25 C149.64506348 143.46447754 149.41512695 142.67895508 149.17822266 141.86962891 C137.58543849 103.43212443 110.19324802 70.2829833 74.9921875 51.23095703 C62.22880197 44.46471007 49.30560424 38.88130535 35.25 35.4375 C34.41573486 35.23036377 33.58146973 35.02322754 32.72192383 34.80981445 C-19.61651113 22.73406276 -70.35403189 41.41922327 -109.125 76.25 Z " fill="#256140" transform="translate(512.125,252.75)"/>
<path d="M0 0 C0.88260498 0.21366211 1.76520996 0.42732422 2.67456055 0.64746094 C42.98915302 11.00584949 78.07036652 37.64283118 99.515625 73.13818359 C107.14513247 86.14659863 112.32590744 99.36243907 116.0625 114 C116.62324219 115.86398437 116.62324219 115.86398437 117.1953125 117.765625 C123.45031532 140.36000751 122.69709682 169.60412144 116.0625 192 C115.81580566 192.8357959 115.56911133 193.6715918 115.31494141 194.53271484 C111.72795566 206.27574431 106.93274353 217.23181001 101.0625 228 C100.59457031 228.87398437 100.12664062 229.74796875 99.64453125 230.6484375 C85.45489466 255.69876367 64.01889923 275.10954931 39.0625 289 C37.95390625 289.61746094 36.8453125 290.23492188 35.703125 290.87109375 C-0.13588611 309.75808435 -43.46362802 312.58480208 -82.10400391 300.97973633 C-91.51926107 297.95434355 -100.29026121 293.76224745 -108.9375 289 C-109.56221191 288.66129883 -110.18692383 288.32259766 -110.83056641 287.97363281 C-132.62458532 276.03030629 -151.20798087 258.6588882 -164.9375 238 C-165.53836426 237.101604 -165.53836426 237.101604 -166.15136719 236.18505859 C-174.60639066 223.34917589 -181.18645531 208.92814408 -184.9375 194 C-185.31648438 192.62908203 -185.31648438 192.62908203 -185.703125 191.23046875 C-189.25040794 177.96293499 -190.38079347 164.79309415 -190.375 151.125 C-190.37573517 150.36364746 -190.37647034 149.60229492 -190.37722778 148.81787109 C-190.27404831 107.8711232 -173.09014967 71.31266376 -144.9375 42 C-107.51108326 4.89301214 -51.81239591 -12.55619296 0 0 Z M-135.9375 52 C-136.58074219 52.59167969 -137.22398437 53.18335938 -137.88671875 53.79296875 C-157.70490506 72.50244534 -169.2702807 98.78189966 -174.9375 125 C-175.12368896 125.83595703 -175.30987793 126.67191406 -175.50170898 127.53320312 C-177.00309665 134.87658433 -177.28558035 142.01781393 -177.25 149.5 C-177.24508545 150.72960449 -177.2401709 151.95920898 -177.23510742 153.22607422 C-177.10552814 163.39173492 -176.19617856 173.090461 -173.9375 183 C-173.76589355 183.7542627 -173.59428711 184.50852539 -173.41748047 185.28564453 C-166.03418608 216.52773474 -148.52862851 244.46423711 -122.9375 264 C-121.62652344 265.01707031 -121.62652344 265.01707031 -120.2890625 266.0546875 C-90.79974416 288.27977493 -54.1724747 298.07275238 -17.48291016 293.57666016 C11.46585344 289.05879052 38.51328636 278.34250319 59.94921875 257.97265625 C62.0625 256 62.0625 256 64.6328125 253.9609375 C68.27104776 251.02461258 71.09638231 247.59965739 74.0625 244 C74.83980469 243.06027344 75.61710938 242.12054687 76.41796875 241.15234375 C100.54530822 211.28265022 110.39240425 173.74568335 106.75341797 135.77490234 C103.04315111 105.01712178 89.87214633 77.81590967 69.0625 55 C68.60536621 54.49227051 68.14823242 53.98454102 67.67724609 53.46142578 C43.65162237 27.07985025 7.70830673 11.33146116 -27.734375 9.65625 C-69.25958395 8.55645389 -106.18751189 23.32047623 -135.9375 52 Z " fill="#FAFBF8" transform="translate(546.9375,288)"/>
<path d="M0 0 C3.99341697 2.1964935 7.6982484 4.77462618 11.4375 7.375 C12.50282959 8.10090332 13.56815918 8.82680664 14.66577148 9.57470703 C17.78573878 11.70432446 20.89399627 13.85008727 24 16 C25.5332714 17.05293246 27.06705364 18.1051218 28.6015625 19.15625 C30.55264903 20.49372988 32.50214744 21.83313501 34.44580078 23.18139648 C37.67044718 25.4172137 40.91564102 27.61130593 44.203125 29.75390625 C44.89204834 30.20459473 45.58097168 30.6552832 46.29077148 31.11962891 C47.59616087 31.97055173 48.90533099 32.81571539 50.21899414 33.65380859 C53.44115126 35.75685857 56.07737163 37.62166729 58 41 C58.19727664 44.48522073 57.93038703 46.80461109 55.73828125 49.62109375 C50.24831705 54.765622 43.59841526 58.60179177 37.26953125 62.6171875 C33.18992809 65.21599825 29.15604333 67.879542 25.13671875 70.5703125 C24.24073219 71.17002113 24.24073219 71.17002113 23.3266449 71.78184509 C20.91563778 73.3969269 18.50551415 75.01329932 16.0977478 76.63320923 C-0.7707513 87.97916528 -0.7707513 87.97916528 -5.6875 88.0625 C-9.75785392 86.75691478 -10.74389655 85.59169013 -13 82 C-13.38704406 79.33999064 -13.54852925 77.09689822 -13.51757812 74.44335938 C-13.5245874 73.69963577 -13.53159668 72.95591217 -13.53881836 72.18965149 C-13.5563685 69.74063353 -13.5447871 67.29277892 -13.53125 64.84375 C-13.53394579 63.13651305 -13.53782894 61.4292776 -13.54284668 59.7220459 C-13.54873766 56.14771882 -13.54019192 52.57379217 -13.52148438 48.99951172 C-13.49869477 44.42276893 -13.51182004 39.84696443 -13.53577423 35.27025604 C-13.55024321 31.74600177 -13.54562124 28.22196916 -13.53526306 24.69770813 C-13.5325988 23.01044096 -13.53585497 21.32315353 -13.54518127 19.63591003 C-13.55536539 17.27561298 -13.53982186 14.91682552 -13.51757812 12.55664062 C-13.52567505 11.86246536 -13.53377197 11.1682901 -13.54211426 10.45307922 C-13.4596804 5.7206031 -12.33366998 3.32978073 -9 0 C-5.83578798 -1.58210601 -3.24528576 -1.05365485 0 0 Z " fill="#FCFEFB" transform="translate(498,396)"/>
<path d="M0 0 C0.66 0 1.32 0 2 0 C3.20161511 3.60484534 3.23017136 6.97289857 3.31640625 10.73046875 C3.33718735 11.48088943 3.35796844 12.23131012 3.37937927 13.00447083 C3.44469926 15.39872184 3.50367792 17.79308139 3.5625 20.1875 C3.60570193 21.81186013 3.64931676 23.43620933 3.69335938 25.06054688 C3.80036263 29.04025371 3.90167937 33.02006958 4 37 C5.32 37.33 6.64 37.66 8 38 C8.02505615 37.13310547 8.0501123 36.26621094 8.07592773 35.37304688 C8.17169454 32.12262176 8.27088544 28.87232329 8.37231445 25.62207031 C8.41533026 24.22172048 8.45702493 22.82132936 8.49731445 21.42089844 C8.91095908 7.101645 8.91095908 7.101645 10 0 C11.32 0.33 12.64 0.66 14 1 C14.28555657 5.94787514 14.57037117 10.89579222 14.85449219 15.84375 C14.95129224 17.52768108 15.04829658 19.21160042 15.14550781 20.89550781 C15.28504024 23.31312061 15.42384273 25.73077437 15.5625 28.1484375 C15.60624756 28.9036972 15.64999512 29.65895691 15.69506836 30.43710327 C16 35.77225659 16 35.77225659 16 38 C17.98 37.505 17.98 37.505 20 37 C20.02505615 36.0212793 20.0501123 35.04255859 20.07592773 34.03417969 C20.17023983 30.39619296 20.27040203 26.75838657 20.37231445 23.12060547 C20.41557338 21.54740626 20.45725474 19.97416283 20.49731445 18.40087891 C20.55523662 16.13690885 20.61886714 13.87315949 20.68359375 11.609375 C20.70866249 10.55759064 20.70866249 10.55759064 20.73423767 9.48455811 C20.83351022 6.19766179 21.00812672 3.14857995 22 0 C22.66 0 23.32 0 24 0 C26.33819615 6.31743304 27.78474202 12.45561987 28.6875 19.125 C28.8119751 20.03862305 28.9364502 20.95224609 29.06469727 21.89355469 C32.08787081 45.47554819 32.08787081 45.47554819 26 54 C24.6445379 54.97959739 23.27076665 55.9341967 21.8828125 56.8671875 C19.17644027 59.19661394 18.12567117 60.45398662 17.31738281 63.96582031 C17.13252405 67.70466891 17.2046566 71.39005284 17.375 75.125 C17.40924485 76.52589028 17.44042742 77.92685833 17.46875 79.32788086 C17.5789535 83.88875064 17.7806983 88.44322889 18 93 C18.03774536 93.79976257 18.07549072 94.59952515 18.11437988 95.42352295 C18.4603565 102.66720544 18.82730057 109.90950772 19.28662109 117.14697266 C19.73158176 124.18580922 20.1234848 131.22472126 20.25 138.27734375 C20.27578125 139.45417725 20.3015625 140.63101074 20.328125 141.84350586 C19.96344927 145.35161036 19.10450247 147.19857263 17 150 C14.15916359 151.42041821 12.14522722 151.31452272 9 151 C6.12714225 148.84778473 5.11086733 147.66453542 4.51416016 144.08789062 C4.52237793 142.95544922 4.5305957 141.82300781 4.5390625 140.65625 C4.54164063 139.36452881 4.54421875 138.07280762 4.546875 136.74194336 C4.57197129 135.32794514 4.59803946 133.9139639 4.625 132.5 C4.63879998 131.03459372 4.65180649 129.56917977 4.6640625 128.10375977 C4.8111348 115.56432489 5.46124749 103.04655389 6.28759766 90.53515625 C6.56202036 86.35834107 6.7936777 82.18069639 7 78 C7.03976959 77.27162933 7.07953918 76.54325867 7.12051392 75.79281616 C7.22922743 73.61451719 7.30132767 71.43789058 7.36328125 69.2578125 C7.41009033 67.98437988 7.45689941 66.71094727 7.50512695 65.39892578 C6.7135101 60.07225116 3.55491858 57.97031686 -0.57421875 54.8515625 C-4.03017565 52.21368235 -5.02819154 50.2343083 -6 46 C-7.2736506 32.5330179 -6.14598404 12.29196808 0 0 Z " fill="#F9FBF6" transform="translate(444,365)"/>
<path d="M0 0 C2.8125 0.5 2.8125 0.5 4.8125 2.5 C5.03094967 5.56946327 5.12398112 8.5511894 5.13134766 11.62329102 C5.14139328 12.57209641 5.1514389 13.52090179 5.16178894 14.49845886 C5.19288932 17.66693522 5.20977416 20.83532415 5.2265625 24.00390625 C5.24531132 26.23453966 5.26488737 28.46516625 5.2852478 30.69578552 C5.33682887 36.61646262 5.37621367 42.53716417 5.41339111 48.45794678 C5.4525579 54.31382833 5.50435267 60.16959641 5.5546875 66.02539062 C5.64119077 76.26384944 5.70262116 86.50225662 5.75110245 96.74096107 C5.78426356 103.12745183 5.84556141 109.51276478 5.93516731 115.8987093 C5.9868846 119.75135423 6.02339108 123.60405008 6.05686569 127.45689201 C6.07605253 129.23583903 6.10223595 131.0147261 6.13585281 132.79345894 C6.18089977 135.2139945 6.20154204 137.63356243 6.21630859 140.05444336 C6.24548433 141.10919892 6.24548433 141.10919892 6.27524948 142.18526268 C6.27064805 145.53071828 6.01548214 147.23114868 3.97476196 149.93409729 C1.8125 151.5 1.8125 151.5 -1.1875 152 C-4.97909874 151.36806688 -5.91148571 150.57970446 -8.1875 147.5 C-8.54983842 144.59508112 -8.67864728 142.08096148 -8.61328125 139.18359375 C-8.60999313 138.37189224 -8.60670502 137.56019073 -8.60331726 136.72389221 C-8.5875886 134.12788546 -8.54361866 131.53317156 -8.5 128.9375 C-8.48850177 127.21810967 -8.47871864 125.49870697 -8.47070312 123.77929688 C-8.40903055 115.30541425 -8.14829667 106.92681235 -7.1875 98.5 C-6.38763178 90.58377847 -6.09596753 85.10970103 -11.0625 78.5625 C-11.78179688 77.74910156 -12.50109375 76.93570313 -13.2421875 76.09765625 C-20.99834441 65.74053909 -18.15329438 46.57435116 -16.86669922 34.48583984 C-12.00133245 1.88256195 -12.00133245 1.88256195 0 0 Z " fill="#FBFCF9" transform="translate(581.1875,364.5)"/>
<path d="M0 0 C2.97 0 5.94 0 9 0 C9 16.5 9 33 9 50 C6.36 50 3.72 50 1 50 C1 48.68 1 47.36 1 46 C0.0925 46.66 -0.815 47.32 -1.75 48 C-6.91030271 50.92626922 -12.23995538 50.88435468 -18 50 C-22.41026773 48.29102126 -25.05011104 45.38977866 -27.4375 41.375 C-29.61276866 36.33103643 -30.01603745 31.38576244 -29 26 C-26.52057808 20.52220738 -23.48826867 16.61958358 -18 14 C-15.0625 13.6015625 -15.0625 13.6015625 -12 13.625 C-10.989375 13.61726562 -9.97875 13.60953125 -8.9375 13.6015625 C-6 14 -6 14 -1 17 C-0.67 11.39 -0.34 5.78 0 0 Z " fill="#494B4C" transform="translate(434,669)"/>
<path d="M0 0 C5.95451691 2.57541989 9.60001092 7.10002686 12 13 C12.97840986 18.64624026 12.06394082 23.22800231 9.28125 28.20703125 C6.83466528 31.63075804 3.77577218 34.11211391 0 36 C-14.18061494 37.36952149 -14.18061494 37.36952149 -19.75 33.375 C-24.7980101 28.62328614 -26.18944352 24.50670149 -26.5625 17.625 C-26.42947622 12.07600784 -25.41376016 8.8452438 -21.8984375 4.5859375 C-15.33294063 -0.89881915 -8.19494371 -1.14130495 0 0 Z " fill="#444647" transform="translate(345,683)"/>
<path d="M0 0 C3.90387701 2.95171189 7.35807825 6.52865649 9.5625 10.9375 C10.28589661 17.98172273 10.00080792 24.18262979 5.5625 29.9375 C-1.31955079 35.41505063 -7.88404501 35.80700015 -16.4375 34.9375 C-21.226287 33.33122975 -24.36513594 30.63834405 -26.9375 26.3125 C-29.05840415 21.31322593 -29.2386741 16.26776036 -28.4375 10.9375 C-22.8750494 -0.61528201 -11.87323637 -3.66990942 0 0 Z " fill="#454748" transform="translate(390.4375,684.0625)"/>
<path d="M0 0 C4.10472902 3.00346026 7.96908909 6.94991173 9.5625 11.875 C9.5625 14.515 9.5625 17.155 9.5625 19.875 C0.3225 19.875 -8.9175 19.875 -18.4375 19.875 C-15.30574314 25.64760299 -15.30574314 25.64760299 -12.4375 26.875 C-8.0499947 27.25232546 -4.2900003 27.18061332 -0.125 25.6875 C0.761875 25.419375 1.64875 25.15125 2.5625 24.875 C4.9375 26.25 4.9375 26.25 6.5625 27.875 C5.52929951 30.87128141 4.66657032 31.81175963 1.9140625 33.484375 C-3.7581362 35.83787469 -9.40067829 35.51385509 -15.4375 34.875 C-20.67944814 32.48393594 -24.84125781 28.06748438 -27.4375 22.875 C-28.17558652 16.02133949 -28.21455426 10.16107234 -23.96875 4.5 C-17.45572236 -2.41178443 -8.76924523 -2.8699348 0 0 Z " fill="#4B4D4F" transform="translate(681.4375,684.125)"/>
<path d="M0 0 C0.68578125 -0.01998047 1.3715625 -0.03996094 2.078125 -0.06054688 C7.20237835 -0.05565732 10.15899359 1.08220225 14 4.4375 C18.34587966 10.06801076 17.33042334 17.04746168 17.1875 23.8125 C17.16719727 25.63201172 17.16719727 25.63201172 17.14648438 27.48828125 C17.11124582 30.47181206 17.06197525 33.45442458 17 36.4375 C14.03 36.4375 11.06 36.4375 8 36.4375 C8 35.4475 8 34.4575 8 33.4375 C7.236875 33.9325 6.47375 34.4275 5.6875 34.9375 C0.30719295 37.12609948 -5.48039986 37.85492652 -11.0078125 35.62890625 C-14.30179739 33.32948201 -15.48441447 30.73162823 -16.1875 26.9375 C-16.37121021 23.25717217 -16.13030161 22.61247645 -13.8125 19.5 C-8.81244036 15.8332896 -5.44018067 15.16037836 0.75 15.3125 C1.44738281 15.32152344 2.14476562 15.33054687 2.86328125 15.33984375 C4.57566958 15.36330112 6.28788004 15.39916896 8 15.4375 C6.8512672 11.75754668 6.8512672 11.75754668 4.1875 9.10546875 C1.56738438 8.30539773 -0.28768187 8.4068256 -3 8.75 C-4.2684375 8.89888672 -4.2684375 8.89888672 -5.5625 9.05078125 C-7.75525738 9.39867064 -9.8584237 9.85748975 -12 10.4375 C-12.66 8.1275 -13.32 5.8175 -14 3.4375 C-9.29805309 0.6677594 -5.36737879 -0.05548982 0 0 Z " fill="#555758" transform="translate(549,682.5625)"/>
<path d="M0 0 C2.97 0 5.94 0 9 0 C9 9.57 9 19.14 9 29 C11.64 26.69 14.28 24.38 17 22 C20.9375 18.6875 20.9375 18.6875 22.65234375 17.26171875 C24.13445384 16.02049527 24.13445384 16.02049527 25 14 C28.63 14 32.26 14 36 14 C31.88380164 18.91935902 27.59589638 23.52647956 23 28 C24.78229152 32.05066254 27.40028341 35.44952991 30 39 C35.41237113 46.39175258 35.41237113 46.39175258 37 50 C33.03848707 50.94895557 29.92982464 51.17352354 26 50 C21.76028165 46.12266251 18.88675345 40.90935945 16 36 C13.53199953 37.15173355 11.95216435 38.04783565 10 40 C9.53837573 42.43252661 9.53837573 42.43252661 9.375 45.125 C9.30023437 46.03507813 9.22546875 46.94515625 9.1484375 47.8828125 C9.09945312 48.58148437 9.05046875 49.28015625 9 50 C6.03 50 3.06 50 0 50 C0 33.5 0 17 0 0 Z " fill="#474A4B" transform="translate(615,669)"/>
<path d="M0 0 C0.99 0.33 1.98 0.66 3 1 C2.31035156 1.38929688 1.62070312 1.77859375 0.91015625 2.1796875 C-9.79974807 8.55567992 -17.32286823 16.37136651 -22 28 C-22.31839844 28.75539063 -22.63679688 29.51078125 -22.96484375 30.2890625 C-27.63997566 43.17260574 -26.06340458 59.840799 -20.35424805 72.07592773 C-11.77441805 89.4668229 0.93917844 100.87712724 19 108 C23.92325879 109.6517379 28.92747328 110.89220681 34 112 C34 112.33 34 112.66 34 113 C28.13625892 113.22350583 23.34224919 112.60528792 17.75 110.875 C17.00911133 110.6483667 16.26822266 110.4217334 15.50488281 110.18823242 C-2.70644519 104.40895542 -17.09309125 93.98608985 -26.5546875 77.25 C-33.6302661 62.84763882 -35.1517686 47.674037 -30.33203125 32.36328125 C-28.23287287 27.06306023 -25.38612987 22.56456273 -22 18 C-21.53851563 17.35546875 -21.07703125 16.7109375 -20.6015625 16.046875 C-16.35328489 10.59532801 -10.69865713 6.81569473 -5 3 C-4.12472656 2.40703125 -3.24945313 1.8140625 -2.34765625 1.203125 C-1.18556641 0.60757813 -1.18556641 0.60757813 0 0 Z " fill="#9EC252" transform="translate(315,646)"/>
<path d="M0 0 C0.96164062 0.00644531 1.92328125 0.01289062 2.9140625 0.01953125 C5.375 0.1875 5.375 0.1875 7.375 1.1875 C6.715 3.4975 6.055 5.8075 5.375 8.1875 C2.735 8.1875 0.095 8.1875 -2.625 8.1875 C-3.285 10.1675 -3.945 12.1475 -4.625 14.1875 C-1.325 14.1875 1.975 14.1875 5.375 14.1875 C5.375 16.8275 5.375 19.4675 5.375 22.1875 C2.075 22.1875 -1.225 22.1875 -4.625 22.1875 C-4.625 31.4275 -4.625 40.6675 -4.625 50.1875 C-7.595 50.1875 -10.565 50.1875 -13.625 50.1875 C-13.625 40.9475 -13.625 31.7075 -13.625 22.1875 C-15.605 22.1875 -17.585 22.1875 -19.625 22.1875 C-19.625 19.5475 -19.625 16.9075 -19.625 14.1875 C-17.645 14.1875 -15.665 14.1875 -13.625 14.1875 C-13.7075 13.32125 -13.79 12.455 -13.875 11.5625 C-13.56246818 7.34332043 -12.28217344 5.43515643 -9.625 2.1875 C-6.40007727 0.09622915 -3.79962848 -0.05632872 0 0 Z " fill="#494B4C" transform="translate(311.625,668.8125)"/>
<path d="M0 0 C2.9934839 1.56952221 4.53337266 3.03870748 6.09765625 6.03125 C6.28328125 6.77375 6.46890625 7.51625 6.66015625 8.28125 C1.91015625 11.28125 1.91015625 11.28125 -0.33984375 11.28125 C-1.36088926 10.30274805 -2.36045585 9.30144573 -3.33984375 8.28125 C-6.47855563 6.71189406 -8.87840197 6.92923897 -12.33984375 7.28125 C-15.91064888 10.23104554 -18.12398554 12.38169775 -18.65234375 17.03125 C-18.26205348 21.09026885 -16.84396997 23.11426684 -14.33984375 26.28125 C-11.23935447 27.83149464 -8.76090157 27.57117015 -5.33984375 27.28125 C-4.49421875 26.58 -3.64859375 25.87875 -2.77734375 25.15625 C-1.97296875 24.5375 -1.16859375 23.91875 -0.33984375 23.28125 C2.97265625 24.03125 2.97265625 24.03125 5.66015625 25.28125 C5.66015625 29.28125 5.66015625 29.28125 3.91015625 31.40625 C-1.37046402 35.80676689 -6.0951061 35.83105853 -12.84765625 35.71875 C-18.03827434 35.06847122 -20.98987087 33.23724812 -24.33984375 29.28125 C-27.45595459 24.95430752 -29.03863765 20.65411977 -28.72265625 15.29296875 C-27.42944059 8.49698849 -23.88257324 4.17295369 -18.33984375 0.28125 C-12.68012752 -1.60532208 -5.72591996 -1.75888025 0 0 Z " fill="#454749" transform="translate(601.33984375,683.71875)"/>
<path d="M0 0 C11.34279201 -0.5010313 19.61557005 -0.40985172 28.875 6.875 C32.35724957 10.10678614 34.78141689 13.25777549 35.171875 18.15625 C35.18559831 20.10496069 35.10066331 22.05384261 35 24 C34.34 24 33.68 24 33 24 C32.14004476 22.84640151 31.33766479 21.64970132 30.5625 20.4375 C26.74743949 15.10022083 21.6226353 12.20150053 16 9 C16.43570312 9.3403125 16.87140625 9.680625 17.3203125 10.03125 C22.99753804 14.65167598 26.96173854 19.94260781 31 26 C31 26.99 31 27.98 31 29 C20.29355149 29.62367661 20.29355149 29.62367661 15.5 27.3125 C10.84203737 23.00388457 8.29780227 18.82252033 5.9375 12.9375 C4.28722771 8.83589486 2.70824675 5.47973544 0 2 C0 1.34 0 0.68 0 0 Z " fill="#9DC250" transform="translate(249,650)"/>
<path d="M0 0 C2.97 0 5.94 0 9 0 C9 2.64 9 5.28 9 8 C11.97 8 14.94 8 18 8 C18 10.64 18 13.28 18 16 C14.7 16 11.4 16 8 16 C8.11358476 18.95918198 8.24033086 21.91676783 8.375 24.875 C8.4059375 25.71675781 8.436875 26.55851563 8.46875 27.42578125 C8.50742187 28.23144531 8.54609375 29.03710938 8.5859375 29.8671875 C8.6173584 30.61081543 8.6487793 31.35444336 8.68115234 32.12060547 C8.85419551 34.24010974 8.85419551 34.24010974 11 36 C14.58343976 36.16677282 14.58343976 36.16677282 18 36 C19.4606285 38.64738916 20 39.89448334 20 43 C15.37364546 44.54211818 10.82606839 44.64206465 6 44 C2.58688333 41.47429367 1.33362232 40.00086696 0 36 C-0.08143855 34.37280518 -0.1075302 32.74248281 -0.09765625 31.11328125 C-0.09443359 30.17548828 -0.09121094 29.23769531 -0.08789062 28.27148438 C-0.07951172 27.29501953 -0.07113281 26.31855469 -0.0625 25.3125 C-0.05798828 24.32443359 -0.05347656 23.33636719 -0.04882812 22.31835938 C-0.03704303 19.87884526 -0.02059011 17.43945311 0 15 C-1.98 15 -3.96 15 -6 15 C-6 13.02 -6 11.04 -6 9 C-4.02 9 -2.04 9 0 9 C0 6.03 0 3.06 0 0 Z " fill="#484A4B" transform="translate(481,675)"/>
<path d="M0 0 C2.64 0 5.28 0 8 0 C8 16.17 8 32.34 8 49 C5.36 49 2.72 49 0 49 C0 47.68 0 46.36 0 45 C-0.556875 45.495 -1.11375 45.99 -1.6875 46.5 C-4.38162983 48.24754367 -5.85375007 48.26218749 -9 48 C-6.66666667 45.66666667 -4.33333333 43.33333333 -2 41 C-2.495 39.515 -2.495 39.515 -3 38 C-2.67 37.34 -2.34 36.68 -2 36 C-1.90388248 34.37731009 -1.87017648 32.75052694 -1.875 31.125 C-1.87113281 29.82949219 -1.87113281 29.82949219 -1.8671875 28.5078125 C-1.90055255 26.03099838 -1.90055255 26.03099838 -2.6328125 23.8671875 C-3 22 -3 22 -1 19 C-0.63566627 16.87662229 -0.63566627 16.87662229 -0.5859375 14.55078125 C-0.52792969 13.27944336 -0.52792969 13.27944336 -0.46875 11.98242188 C-0.4378125 11.10134766 -0.406875 10.22027344 -0.375 9.3125 C-0.33632813 8.41982422 -0.29765625 7.52714844 -0.2578125 6.60742188 C-0.16359782 4.4051538 -0.07798412 2.20289278 0 0 Z " fill="#424446" transform="translate(435,670)"/>
<path d="M0 0 C0.68578125 -0.01998047 1.3715625 -0.03996094 2.078125 -0.06054688 C7.18712398 -0.05567188 10.12552811 1.15688318 14 4.4375 C16.24503801 7.83931788 16.23320464 10.71780852 16.1953125 14.734375 C16.18886719 15.93964844 16.18242188 17.14492188 16.17578125 18.38671875 C16.15902344 19.64097656 16.14226563 20.89523437 16.125 22.1875 C16.11597656 23.45722656 16.10695313 24.72695313 16.09765625 26.03515625 C16.07409005 29.16946093 16.04118832 32.30338541 16 35.4375 C13.69 35.4375 11.38 35.4375 9 35.4375 C9 34.4475 9 33.4575 9 32.4375 C7.68 31.7775 6.36 31.1175 5 30.4375 C5.4640625 29.633125 5.4640625 29.633125 5.9375 28.8125 C7.17827439 26.0390043 7.5909675 23.43707163 8 20.4375 C4.37 20.4375 0.74 20.4375 -3 20.4375 C-3 20.1075 -3 19.7775 -3 19.4375 C0.63 19.1075 4.26 18.7775 8 18.4375 C7.77719933 13.43607313 7.77719933 13.43607313 5.0625 9.4375 C-0.56816741 7.59891472 -6.37736551 8.93120531 -12 10.4375 C-12.66 8.1275 -13.32 5.8175 -14 3.4375 C-9.29805309 0.6677594 -5.36737879 -0.05548982 0 0 Z " fill="#444647" transform="translate(549,682.5625)"/>
<path d="M0 0 C0.99 0 1.98 0 3 0 C3 0.99 3 1.98 3 3 C3.99 2.34 4.98 1.68 6 1 C9.06475543 0.45477197 11.93524839 0.45157076 15 1 C18 3.4375 18 3.4375 20 6 C20.33 6.33 20.66 6.66 21 7 C21.35536226 12.33043395 21.44866826 15.65723256 18 20 C15.00261059 21.99825961 14.36652492 22.27550398 11 22.25 C9.9790625 22.25773438 9.9790625 22.25773438 8.9375 22.265625 C7 22 7 22 4 20 C3.67 23.3 3.34 26.6 3 30 C2.01 30 1.02 30 0 30 C0 20.1 0 10.2 0 0 Z " fill="#9A9C9B" transform="translate(470,738)"/>
<path d="M0 0 C2.64 0 5.28 0 8 0 C8.33 1.32 8.66 2.64 9 4 C9.70125 3.34 10.4025 2.68 11.125 2 C14.43460229 -0.30233203 16.06225823 -0.36630156 20 0 C20 2.64 20 5.28 20 8 C17.98177083 8.42317708 15.96354167 8.84635417 13.9453125 9.26953125 C11.62953451 9.92308838 11.62953451 9.92308838 10 13 C9.63303819 15.51502177 9.63303819 15.51502177 9.5859375 18.32421875 C9.52792969 19.86625977 9.52792969 19.86625977 9.46875 21.43945312 C9.4378125 22.51130859 9.406875 23.58316406 9.375 24.6875 C9.31699219 26.31268555 9.31699219 26.31268555 9.2578125 27.97070312 C9.16349491 30.64696467 9.07789995 33.32321843 9 36 C6.03 36 3.06 36 0 36 C0 24.12 0 12.24 0 0 Z " fill="#494A4C" transform="translate(508,683)"/>
<path d="M0 0 C2.64 0 5.28 0 8 0 C8.33 1.32 8.66 2.64 9 4 C9.680625 3.34 10.36125 2.68 11.0625 2 C14.64457375 -0.43885872 16.75519536 -0.33292585 21 0 C21 2.64 21 5.28 21 8 C20.07767578 8.14695312 20.07767578 8.14695312 19.13671875 8.296875 C18.32847656 8.44640625 17.52023437 8.5959375 16.6875 8.75 C15.88699219 8.88921875 15.08648438 9.0284375 14.26171875 9.171875 C11.35397042 10.23654278 10.60548699 11.37529937 9 14 C8.50142674 16.50359737 8.50142674 16.50359737 8.48828125 19.203125 C8.45283203 20.1828125 8.41738281 21.1625 8.38085938 22.171875 C8.34702148 23.69554687 8.34702148 23.69554687 8.3125 25.25 C8.27833984 26.28125 8.24417969 27.3125 8.20898438 28.375 C8.12661907 30.91655812 8.05743166 33.45777626 8 36 C5.36 36 2.72 36 0 36 C0 24.12 0 12.24 0 0 Z " fill="#434546" transform="translate(699,683)"/>
<path d="M0 0 C3.55410006 0.86483101 5.21403929 2.68489799 7.34375 5.5703125 C8.91830739 8.71942729 8.69174118 11.09040066 8.34375 14.5703125 C6.34082521 18.05029766 4.22321651 20.277157 0.34375 21.5703125 C-3.75324372 21.94966377 -5.93418017 22.01960039 -9.46875 19.8203125 C-12.42196127 16.78272376 -13.41746498 14.91347826 -14.15625 10.7578125 C-13.54149468 6.83874734 -12.32543506 4.81142479 -9.63671875 1.9375 C-6.48629164 -0.23735106 -3.74392313 -0.25936817 0 0 Z " fill="#F9F9F7" transform="translate(634.65625,738.4296875)"/>
<path d="M0 0 C2.87029869 1.79393668 4.49131638 2.98263276 6 6 C6.55112923 10.59876684 6.61753151 13.97787887 4.1875 18 C0.79691645 21.0999621 -2.46996641 21.39271664 -6.99609375 21.359375 C-10.39129975 20.75048815 -11.94677524 18.61319515 -14 16 C-15.60086627 12.79826746 -15.49917089 9.47422941 -15 6 C-11.03690229 -0.20885308 -7.02452124 -0.90991208 0 0 Z " fill="#FAFAF7" transform="translate(457,739)"/>
<path d="M0 0 C2.97613543 0.75883381 4.37412237 2.09498467 6.16015625 4.55078125 C7.75704666 7.74456207 7.53364582 11.0759944 7.16015625 14.55078125 C5.9102748 17.4255086 4.90547041 18.99179563 2.41015625 20.86328125 C-0.86090555 21.86277236 -3.43726963 21.90894695 -6.83984375 21.55078125 C-10.25197905 19.42767484 -12.58933119 17.41600189 -13.83984375 13.55078125 C-14.36039668 9.55987544 -14.00980961 7.85554762 -12.02734375 4.30078125 C-8.15090816 -0.57245206 -5.77258608 -0.77906446 0 0 Z " fill="#F7F8F7" transform="translate(340.83984375,690.44921875)"/>
<path d="M0 0 C2.87029869 1.79393668 4.49131638 2.98263276 6 6 C6.55112923 10.59876684 6.61753151 13.97787887 4.1875 18 C1.32361126 20.61841256 -0.52385552 20.96473004 -4.375 21.25 C-8.26399436 20.98179349 -9.98378462 20.4129723 -13 18 C-15.34113009 14.98997559 -15.41216607 11.72258458 -15.328125 7.96875 C-14.80947233 4.85683396 -13.21445226 3.14932131 -11 1 C-7.54260443 -0.72869779 -3.78024432 -0.48966895 0 0 Z " fill="#FBFBF8" transform="translate(410,739)"/>
<path d="M0 0 C3.5386994 1.65139305 4.81070153 2.71605229 7 6 C7.61414419 10.25912987 7.43727155 13.97241187 5.75 17.9375 C2.86340563 21.33955765 0.99958335 21.89095454 -3.4375 22.375 C-7.58155564 21.93878362 -9.09130272 20.90869728 -12 18 C-13.84862688 14.30274625 -13.47587094 10.03538558 -13 6 C-9.45398629 0.20817761 -6.6324111 -0.44965499 0 0 Z " fill="#F9F8F8" transform="translate(384,690)"/>
<path d="M0 0 C2.93541736 2.21946191 3.80586845 3.75551459 4.37109375 7.37890625 C4.58557274 11.739979 4.4386427 14.28355026 2.125 18.0625 C-1.14012491 21.03952565 -3.52262342 21.39165365 -7.9609375 21.359375 C-11.38006698 20.7567698 -12.93189052 18.63213933 -15 16 C-16.61429923 12.77140153 -16.59570657 9.49006347 -16 6 C-11.97635371 -1.0113538 -7.4143198 -1.85687228 0 0 Z " fill="#F9F9F8" transform="translate(430,691)"/>
<path d="M0 0 C0.66 0 1.32 0 2 0 C2 0.99 2 1.98 2 3 C2.99 2.34 3.98 1.68 5 1 C7.12109375 0.734375 7.12109375 0.734375 9.4375 0.75 C10.19933594 0.74484375 10.96117187 0.7396875 11.74609375 0.734375 C14.21443018 1.0252708 15.857686 1.77024344 18 3 C18.99 2.34 19.98 1.68 21 1 C24.04453491 0.51780847 26.95291087 0.53715102 30 1 C32.50160818 2.87620613 33.61945652 4.23891303 35 7 C35.0716735 9.55157655 35.09308442 12.07472971 35.0625 14.625 C35.05798828 15.33140625 35.05347656 16.0378125 35.04882812 16.765625 C35.03703875 18.51045275 35.01910324 20.255237 35 22 C33.68 22 32.36 22 31 22 C30.93941406 20.85660156 30.87882813 19.71320312 30.81640625 18.53515625 C30.73201572 17.04425695 30.64736698 15.55337225 30.5625 14.0625 C30.52318359 13.30775391 30.48386719 12.55300781 30.44335938 11.77539062 C30.55961976 8.08055813 30.55961976 8.08055813 29 5 C24.96916989 4.67539739 24.96916989 4.67539739 21 5 C18.57520264 8.63719605 18.61337423 10.85703482 18.375 15.1875 C18.30023437 16.45980469 18.22546875 17.73210938 18.1484375 19.04296875 C18.09945312 20.01878906 18.05046875 20.99460937 18 22 C17.01 22 16.02 22 15 22 C14.96261719 20.86820313 14.92523437 19.73640625 14.88671875 18.5703125 C14.82106918 17.08850795 14.75462149 15.60673861 14.6875 14.125 C14.66494141 13.37863281 14.64238281 12.63226562 14.61914062 11.86328125 C14.52188055 9.900396 14.26957706 7.94671678 14 6 C11.17282787 3.66703749 11.17282787 3.66703749 7.9375 4.25 C4.900541 4.7593244 4.900541 4.7593244 3 7 C2.69400937 9.56916657 2.48912913 12.04758384 2.375 14.625 C2.33632813 15.33140625 2.29765625 16.0378125 2.2578125 16.765625 C2.16352276 18.50998524 2.08067109 20.25495691 2 22 C1.01 22 0.02 22 -1 22 C-1.02887814 18.52085059 -1.04675687 15.04173169 -1.0625 11.5625 C-1.07087891 10.56927734 -1.07925781 9.57605469 -1.08789062 8.55273438 C-1.09111328 7.60849609 -1.09433594 6.66425781 -1.09765625 5.69140625 C-1.10289307 4.81685791 -1.10812988 3.94230957 -1.11352539 3.04125977 C-1 1 -1 1 0 0 Z " fill="#939696" transform="translate(650,738)"/>
<path d="M0 0 C0.86367188 -0.03738281 1.72734375 -0.07476563 2.6171875 -0.11328125 C5.125 0.3125 5.125 0.3125 7.4296875 1.78515625 C9.91797224 5.49464986 9.56286018 8.70558895 9.375 13.0625 C9.35695313 13.85527344 9.33890625 14.64804687 9.3203125 15.46484375 C9.27333082 17.41458348 9.20159044 19.36369878 9.125 21.3125 C8.50625 21.126875 7.8875 20.94125 7.25 20.75 C5.08339822 20.07563824 5.08339822 20.07563824 3.125 21.3125 C-4.02121131 21.88880736 -4.02121131 21.88880736 -7.375 19.625 C-9.17556348 16.8491313 -9.53999679 15.55435935 -8.875 12.3125 C-6.59215866 10.07232859 -5.28604348 9.35555623 -2.078125 9.01953125 C-1.10359375 9.05433594 -0.1290625 9.08914063 0.875 9.125 C1.85984375 9.15207031 2.8446875 9.17914062 3.859375 9.20703125 C4.60703125 9.24183594 5.3546875 9.27664063 6.125 9.3125 C5.465 7.6625 4.805 6.0125 4.125 4.3125 C0.165 4.3125 -3.795 4.3125 -7.875 4.3125 C-7.545 3.3225 -7.215 2.3325 -6.875 1.3125 C-4.44538821 0.0976941 -2.71115884 0.07642733 0 0 Z " fill="#8F9292" transform="translate(503.875,738.6875)"/>
<path d="M0 0 C3.75328187 1.35757004 5.03233297 2.55699266 6.9375 6.0625 C6.87727486 9.55555789 6.57408168 11.96616489 4.8125 15 C1.75297541 16.7337306 -0.63067525 16.48395216 -4.0625 16.0625 C-6.5 14.5625 -6.5 14.5625 -8.0625 12.0625 C-8.67247236 9.25432537 -8.72147944 6.86459517 -8.0625 4.0625 C-5.4424551 0.90303409 -4.11187634 0.08391584 0 0 Z " fill="#FBFBFA" transform="translate(481.0625,740.9375)"/>
<path d="M0 0 C0.99 0 1.98 0 3 0 C3.33 5.94 3.66 11.88 4 18 C6.3821875 15.7725 6.3821875 15.7725 8.8125 13.5 C13.625 9 13.625 9 17 9 C15.98110061 11.27292941 15.19097369 12.83024561 13.3125 14.5 C12.879375 14.995 12.44625 15.49 12 16 C12.40158007 19.69453664 14.27236856 21.91856476 16.5625 24.75 C17.20316406 25.54921875 17.84382812 26.3484375 18.50390625 27.171875 C18.99761719 27.77515625 19.49132812 28.3784375 20 29 C18.68 29.33 17.36 29.66 16 30 C13.69 27.03 11.38 24.06 9 21 C7.35 21.66 5.7 22.32 4 23 C2.62032476 26.53514293 2.62032476 26.53514293 2 30 C1.34 30 0.68 30 0 30 C0 20.1 0 10.2 0 0 Z " fill="#999C9C" transform="translate(545,730)"/>
<path d="M0 0 C2.87029869 1.79393668 4.49131638 2.98263276 6 6 C6.55112923 10.59876684 6.61753151 13.97787887 4.1875 18 C1.32361126 20.61841256 -0.52385552 20.96473004 -4.375 21.25 C-8.26399436 20.98179349 -9.98378462 20.4129723 -13 18 C-15.34113009 14.98997559 -15.41216607 11.72258458 -15.328125 7.96875 C-14.80947233 4.85683396 -13.21445226 3.14932131 -11 1 C-7.54260443 -0.72869779 -3.78024432 -0.48966895 0 0 Z M-10.4375 4.625 C-12.48384007 7.73543691 -12.59807728 9.33677666 -12 13 C-10.59121904 15.9901643 -10.59121904 15.9901643 -8 18 C-4.03430012 18.63734462 -1.96719488 18.61999672 1.4375 16.4375 C3.60396028 13.05782196 3.56288002 10.94016013 3 7 C1.58333333 4.41666667 1.58333333 4.41666667 -1 3 C-4.97487617 2.43216055 -7.06489221 2.37659481 -10.4375 4.625 Z " fill="#999B9B" transform="translate(410,739)"/>
<path d="M0 0 C2.87029869 1.79393668 4.49131638 2.98263276 6 6 C6.55112923 10.59876684 6.61753151 13.97787887 4.1875 18 C0.79691645 21.0999621 -2.46996641 21.39271664 -6.99609375 21.359375 C-10.39129975 20.75048815 -11.94677524 18.61319515 -14 16 C-15.60086627 12.79826746 -15.49917089 9.47422941 -15 6 C-11.03690229 -0.20885308 -7.02452124 -0.90991208 0 0 Z M-11 5 C-12.42662219 7.85324437 -12.31033868 9.83454549 -12 13 C-10.59121904 15.9901643 -10.59121904 15.9901643 -8 18 C-4.03430012 18.63734462 -1.96719488 18.61999672 1.4375 16.4375 C3.60396028 13.05782196 3.56288002 10.94016013 3 7 C1.07017583 4.28395117 -0.34200775 3.25307394 -3.4375 2.0625 C-6.79102143 1.98070679 -8.34927871 3.01195903 -11 5 Z " fill="#9A9D9C" transform="translate(457,739)"/>
<path d="M0 0 C3.55410006 0.86483101 5.21403929 2.68489799 7.34375 5.5703125 C8.91830739 8.71942729 8.69174118 11.09040066 8.34375 14.5703125 C6.34082521 18.05029766 4.22321651 20.277157 0.34375 21.5703125 C-3.75324372 21.94966377 -5.93418017 22.01960039 -9.46875 19.8203125 C-12.42196127 16.78272376 -13.41746498 14.91347826 -14.15625 10.7578125 C-13.54149468 6.83874734 -12.32543506 4.81142479 -9.63671875 1.9375 C-6.48629164 -0.23735106 -3.74392313 -0.25936817 0 0 Z M-7.34375 4.1953125 C-10.16126634 7.08897793 -10.65625 8.55502176 -10.65625 12.5703125 C-8.92280125 16.29875214 -8.92280125 16.29875214 -5.65625 18.5703125 C-1.62433695 19.10790091 -0.0943464 18.8779121 3.28125 16.5078125 C5.66416984 13.68192341 5.66416984 13.68192341 5.46875 10.0078125 C4.14893229 5.97503617 2.98212312 4.68564571 -0.65625 2.5703125 C-4.60919303 2.22536627 -4.60919303 2.22536627 -7.34375 4.1953125 Z " fill="#9C9F9F" transform="translate(634.65625,738.4296875)"/>
<path d="M0 0 C1.32 0 2.64 0 4 0 C6.31 4.95 8.62 9.9 11 15 C12.98841412 12.01737882 14.53671732 9.02359325 16.125 5.8125 C16.66382813 4.72582031 17.20265625 3.63914062 17.7578125 2.51953125 C18.16773438 1.68808594 18.57765625 0.85664062 19 0 C19.99 0.33 20.98 0.66 22 1 C20.26845466 5.11219682 18.51167533 9.21313081 16.75 13.3125 C16.25886719 14.47974609 15.76773438 15.64699219 15.26171875 16.84960938 C14.77832031 17.96787109 14.29492188 19.08613281 13.796875 20.23828125 C13.35698242 21.26993408 12.91708984 22.30158691 12.46386719 23.36450195 C10.91875278 26.14627481 9.74450759 27.43043083 7 29 C3.88810534 29.24895157 1.80915474 29.40457737 -1 28 C-0.505 26.515 -0.505 26.515 0 25 C1.134375 25.020625 2.26875 25.04125 3.4375 25.0625 C6.81575674 25.41577477 6.81575674 25.41577477 8 24 C8.72002292 18.21281577 6.53115474 14.20277788 4 9.1875 C3.24870316 7.66079375 2.49863333 6.13348284 1.75 4.60546875 C1.41484375 3.93668701 1.0796875 3.26790527 0.734375 2.57885742 C0 1 0 1 0 0 Z " fill="#999C9C" transform="translate(566,739)"/>
<path d="M0 0 C2.475 0.495 2.475 0.495 5 1 C5.33 0.67 5.66 0.34 6 0 C7.890625 -0.2734375 7.890625 -0.2734375 10.25 -0.375 C11.01828125 -0.42398438 11.7865625 -0.47296875 12.578125 -0.5234375 C16.34481128 0.29065276 17.72894761 1.93866927 20 5 C20.57859012 7.80619794 20.47802824 10.46286761 20.3125 13.3125 C20.28994141 14.05306641 20.26738281 14.79363281 20.24414062 15.55664062 C20.1855815 17.37197357 20.09590886 19.18625681 20 21 C19.01 21 18.02 21 17 21 C16.95101563 19.94039062 16.90203125 18.88078125 16.8515625 17.7890625 C16.77653291 16.40101503 16.70098515 15.01299549 16.625 13.625 C16.5940625 12.92632813 16.563125 12.22765625 16.53125 11.5078125 C16.40500502 7.29814173 16.40500502 7.29814173 14 4 C9.45418611 3.48856285 9.45418611 3.48856285 5.3203125 5.0703125 C3.31819897 7.99647843 3.47308717 10.6866998 3.3125 14.1875 C3.24675781 15.45980469 3.18101562 16.73210938 3.11328125 18.04296875 C3.05720703 19.50669922 3.05720703 19.50669922 3 21 C2.01 21 1.02 21 0 21 C0 14.07 0 7.14 0 0 Z " fill="#9A9D9D" transform="translate(369,739)"/>
<path d="M0 0 C8.58 0 17.16 0 26 0 C26 0.66 26 1.32 26 2 C24.68 2 23.36 2 22 2 C22.99 3.65 23.98 5.3 25 7 C22.66666667 7 20.33333333 7 18 7 C17.01 7.33 16.02 7.66 15 8 C10.41828268 8.52337969 7.04380831 8.60888818 3 6.25 C1 4 1 4 0 0 Z " fill="#F6F6F6" transform="translate(663,704)"/>
<path d="M0 0 C0.99 0.33 1.98 0.66 3 1 C2.31035156 1.38929688 1.62070312 1.77859375 0.91015625 2.1796875 C-9.99141452 8.66978587 -16.93252902 16.39976522 -22 28 C-22.65935585 29.33696376 -23.32364546 30.67155476 -24 32 C-24 30.68 -24 29.36 -24 28 C-24.66 28.33 -25.32 28.66 -26 29 C-26.40729228 31.32156597 -26.74438677 33.6568787 -27 36 C-27.66 36 -28.32 36 -29 36 C-30.91610155 42.64248536 -31.56367091 49.11059329 -32 56 C-32.33 56 -32.66 56 -33 56 C-33.8689241 41.46965807 -30.69186467 29.71678674 -22 18 C-21.53851563 17.35546875 -21.07703125 16.7109375 -20.6015625 16.046875 C-16.35328489 10.59532801 -10.69865713 6.81569473 -5 3 C-4.12472656 2.40703125 -3.24945313 1.8140625 -2.34765625 1.203125 C-1.18556641 0.60757813 -1.18556641 0.60757813 0 0 Z " fill="#9AC44A" transform="translate(315,646)"/>
<path d="M0 0 C2.5625 1.375 2.5625 1.375 4 3 C4 3.66 4 4.32 4 5 C3.505 4.835 3.01 4.67 2.5 4.5 C-1.09809533 3.78038093 -4.32539233 3.8221964 -8 4 C-10.4282022 5.99557113 -10.4282022 5.99557113 -10.3125 9.9375 C-10.2339218 12.48435809 -10.13665953 13.75704973 -8.875 16 C-6.11168143 17.4737699 -4.0915542 17.30915542 -1 17 C1.78566059 16.08742694 1.78566059 16.08742694 4 15 C4 18 4 18 2.5 19.6875 C-0.98840588 21.51891309 -4.18748203 21.68216027 -8 21 C-11.06048212 19.20363006 -12.57072503 17.72196245 -14.375 14.6875 C-15.22094728 11.04992671 -14.96685978 8.60960985 -14 5 C-10.25081236 -0.50661934 -6.23715226 -1.09382894 0 0 Z " fill="#A3A6A6" transform="translate(613,739)"/>
<path d="M0 0 C2.5625 1.375 2.5625 1.375 4 3 C4 3.66 4 4.32 4 5 C3.319375 4.835 2.63875 4.67 1.9375 4.5 C-1.45315882 3.92286658 -4.56650292 3.80565111 -8 4 C-10.4282022 5.99557113 -10.4282022 5.99557113 -10.3125 9.9375 C-10.2339218 12.48435809 -10.13665953 13.75704973 -8.875 16 C-6.1226906 17.46789835 -4.0732347 17.31359538 -1 17 C1.30230766 16.10168984 1.30230766 16.10168984 3 15 C3 16.32 3 17.64 3 19 C-0.67248619 21.35039116 -3.71157095 21.51756902 -8 21 C-11.58355703 18.94277282 -13.42464702 17.77748714 -14.69921875 13.83984375 C-15.28993092 10.03514921 -15.27224577 7.63977756 -13.75 4.0625 C-9.73853328 -0.66530006 -5.79832052 -0.70124093 0 0 Z " fill="#969999" transform="translate(534,739)"/>
<path d="M0 0 C0.99 0 1.98 0 3 0 C5.31 4.95 7.62 9.9 10 15 C11.98841412 12.01737882 13.53671732 9.02359325 15.125 5.8125 C15.66382813 4.72582031 16.20265625 3.63914062 16.7578125 2.51953125 C17.16773438 1.68808594 17.57765625 0.85664062 18 0 C18.99 0 19.98 0 21 0 C19.50640515 4.84286815 17.54966433 9.31350896 15.375 13.875 C15.05015625 14.56335938 14.7253125 15.25171875 14.390625 15.9609375 C13.59676528 17.64205219 12.79880442 19.32122921 12 21 C10.68 21 9.36 21 8 21 C6.65757579 18.06657102 5.32765933 15.12763748 4 12.1875 C3.6184375 11.35412109 3.236875 10.52074219 2.84375 9.66210938 C2.4828125 8.85966797 2.121875 8.05722656 1.75 7.23046875 C1.41484375 6.49207764 1.0796875 5.75368652 0.734375 4.99291992 C0 3 0 3 0 0 Z " fill="#9A9C9C" transform="translate(419,739)"/>
<path d="M0 0 C3.0625 2.3125 3.0625 2.3125 5 5 C5 5.99 5 6.98 5 8 C-1.27 8 -7.54 8 -14 8 C-13 3 -13 3 -11.5 1.1875 C-7.68428152 -0.62496628 -4.13825937 -0.80261614 0 0 Z " fill="#F7F7F7" transform="translate(677,690)"/>
<path d="M0 0 C5.94 0 11.88 0 18 0 C18 2.31 18 4.62 18 7 C12.06 7 6.12 7 0 7 C0 4.69 0 2.38 0 0 Z " fill="#4E5051" transform="translate(453,697)"/>
<path d="M0 0 C2.50160818 1.87620613 3.61945652 3.23891303 5 6 C5.0716735 8.55157655 5.09308442 11.07472971 5.0625 13.625 C5.05798828 14.33140625 5.05347656 15.0378125 5.04882812 15.765625 C5.03703875 17.51045275 5.01910324 19.255237 5 21 C3.68 21 2.36 21 1 21 C0.93941406 19.85660156 0.87882813 18.71320312 0.81640625 17.53515625 C0.73201572 16.04425695 0.64736698 14.55337225 0.5625 13.0625 C0.52318359 12.30775391 0.48386719 11.55300781 0.44335938 10.77539062 C0.55961976 7.08055813 0.55961976 7.08055813 -1 4 C-6.36554365 3.41918906 -6.36554365 3.41918906 -11 5.5 C-11.495 6.2425 -11.495 6.2425 -12 7 C-12.66 5.35 -13.32 3.7 -14 2 C-9.48953104 -0.32798398 -4.97552058 -0.78120323 0 0 Z " fill="#A5A7A8" transform="translate(680,739)"/>
<path d="M0 0 C1.77503906 0.03480469 1.77503906 0.03480469 3.5859375 0.0703125 C5.36871094 0.09738281 5.36871094 0.09738281 7.1875 0.125 C8.10273437 0.14820313 9.01796875 0.17140625 9.9609375 0.1953125 C10.140625 4.90625 10.140625 4.90625 8.5234375 7.5078125 C4.85116872 9.92613585 1.25615642 9.90841834 -3.0390625 9.1953125 C-5.0390625 7.1953125 -5.0390625 7.1953125 -5.2890625 4.6953125 C-4.90234402 0.82812773 -3.80133525 0.24430175 0 0 Z " fill="#F8F8F7" transform="translate(547.0390625,703.8046875)"/>
<path d="M0 0 C3.0625 0.3125 3.0625 0.3125 4.9375 1.5 C6.46909584 3.96757108 6.49072025 5.45769831 6.0625 8.3125 C4.9375 10.125 4.9375 10.125 3.0625 11.3125 C0 11.625 0 11.625 -2.9375 11.3125 C-4.9375 9.3125 -4.9375 9.3125 -5.1875 5.8125 C-4.87458101 1.43163414 -4.40975115 0.46912246 0 0 Z " fill="#4C4E50" transform="translate(728.9375,707.6875)"/>
<path d="M0 0 C0.66 0 1.32 0 2 0 C3.01085428 3.34386398 3.11543463 6.3748118 3.09765625 9.859375 C3.09443359 10.97441406 3.09121094 12.08945312 3.08789062 13.23828125 C3.07951172 14.39714844 3.07113281 15.55601562 3.0625 16.75 C3.05798828 17.92433594 3.05347656 19.09867188 3.04882812 20.30859375 C3.03705094 23.20578072 3.02060326 26.10286454 3 29 C2.01 29 1.02 29 0 29 C0 19.43 0 9.86 0 0 Z " fill="#989B9B" transform="translate(470,739)"/>
<path d="M0 0 C2.74279862 1.07148581 5.44124386 2.19776098 8.12890625 3.40234375 C15.64435942 6.76249517 22.90309689 9.30943781 31 11 C31 11.33 31 11.66 31 12 C24.98126406 12.25106339 20.16173759 11.49542662 14.4375 9.6875 C13.72142578 9.47416016 13.00535156 9.26082031 12.26757812 9.04101562 C7.69500894 7.64719335 3.36173098 5.95446815 -1 4 C-0.67 2.68 -0.34 1.36 0 0 Z " fill="#A1C756" transform="translate(318,747)"/>
<path d="M0 0 C0 2.64 0 5.28 0 8 C-1.45635371 8.22174933 -2.91522956 8.42698698 -4.375 8.625 C-5.18710937 8.74101563 -5.99921875 8.85703125 -6.8359375 8.9765625 C-7.55007813 8.98429688 -8.26421875 8.99203125 -9 9 C-9.66 8.34 -10.32 7.68 -11 7 C-10.39816251 4.97954558 -9.72693904 2.97888961 -9 1 C-6.04335481 -0.4783226 -3.25770263 -0.06032783 0 0 Z " fill="#515354" transform="translate(720,683)"/>
<path d="M0 0 C0 0.66 0 1.32 0 2 C-1.11375 2.433125 -2.2275 2.86625 -3.375 3.3125 C-7.17512334 4.69911119 -7.17512334 4.69911119 -9 8 C-8.73343428 10.93443402 -8.73343428 10.93443402 -8 14 C-7.814375 14.94875 -7.62875 15.8975 -7.4375 16.875 C-7.293125 17.57625 -7.14875 18.2775 -7 19 C-9.36810318 18.05275873 -10.75207953 17.34708866 -12.25 15.25 C-13.28406244 12.14781269 -13.51255626 10.26754615 -13 7 C-9.74601662 1.24473402 -6.82609708 -0.95565359 0 0 Z " fill="#979A99" transform="translate(634,739)"/>
<path d="M0 0 C2.5625 1.375 2.5625 1.375 4 3 C4 3.66 4 4.32 4 5 C3.319375 4.835 2.63875 4.67 1.9375 4.5 C-1.45315882 3.92286658 -4.56650292 3.80565111 -8 4 C-10.5654594 6.5654594 -10.54046087 8.47686668 -11 12 C-11.33 10.68 -11.66 9.36 -12 8 C-12.66 8 -13.32 8 -14 8 C-14 9.65 -14 11.3 -14 13 C-14.33 13 -14.66 13 -15 13 C-15.32521241 8.3386221 -14.81951666 5.75935554 -12 2 C-7.9772 -0.68186667 -4.72471177 -0.57140016 0 0 Z " fill="#9D9F9E" transform="translate(534,739)"/>
<path d="M0 0 C1.21816406 0.03480469 1.21816406 0.03480469 2.4609375 0.0703125 C3.68683594 0.09738281 3.68683594 0.09738281 4.9375 0.125 C5.87722656 0.15980469 5.87722656 0.15980469 6.8359375 0.1953125 C6.9609375 2.5703125 6.9609375 2.5703125 6.8359375 5.1953125 C4.8359375 7.1953125 4.8359375 7.1953125 2.890625 7.390625 C0.87239583 7.32552083 -1.14583333 7.26041667 -3.1640625 7.1953125 C-3.7890625 4.8203125 -3.7890625 4.8203125 -4.1640625 2.1953125 C-2.1640625 0.1953125 -2.1640625 0.1953125 0 0 Z " fill="#F6F6F4" transform="translate(503.1640625,749.8046875)"/>
<path d="M0 0 C5.94 0 11.88 0 18 0 C17.67 1.32 17.34 2.64 17 4 C11.39 4 5.78 4 0 4 C0 2.68 0 1.36 0 0 Z " fill="#434447" transform="translate(664,699)"/>
<path d="M0 0 C0.66 0 1.32 0 2 0 C2 6.6 2 13.2 2 20 C2.99 20.33 3.98 20.66 5 21 C4.34 21.99 3.68 22.98 3 24 C2.60986284 25.9896995 2.26797351 27.99019869 2 30 C1.34 30 0.68 30 0 30 C0 20.1 0 10.2 0 0 Z " fill="#8F9292" transform="translate(545,730)"/>
<path d="M0 0 C2.5625 1.375 2.5625 1.375 4 3 C4 3.66 4 4.32 4 5 C3.505 4.835 3.01 4.67 2.5 4.5 C-1.18005012 3.76398998 -4.23108935 3.70088011 -8 4 C-9.99033641 5.65373496 -9.99033641 5.65373496 -11 8 C-11.5878125 9.11375 -11.5878125 9.11375 -12.1875 10.25 C-12.455625 10.8275 -12.72375 11.405 -13 12 C-14 11 -14 11 -14.375 8.25 C-14 5 -14 5 -12.0625 2.125 C-7.97861616 -0.70871532 -4.83510588 -0.84794767 0 0 Z " fill="#9D9F9F" transform="translate(613,739)"/>
<path d="M0 0 C0.99 0 1.98 0 3 0 C3 0.99 3 1.98 3 3 C3.99 2.34 4.98 1.68 6 1 C9.06464321 0.45479194 11.93597168 0.44729437 15 1 C18.0625 3.5 18.0625 3.5 20 6 C19.01 6.99 18.02 7.98 17 9 C16.29875 8.154375 15.5975 7.30875 14.875 6.4375 C12.23072929 3.65055585 12.23072929 3.65055585 8.875 4.0625 C5.84803479 4.90673098 5.84803479 4.90673098 3 7 C2.87625 6.030625 2.7525 5.06125 2.625 4.0625 C2.41875 3.051875 2.2125 2.04125 2 1 C1.34 0.67 0.68 0.34 0 0 Z " fill="#A0A1A1" transform="translate(470,738)"/>
<path d="M0 0 C3 1 3 1 4 3 C4.07181821 5.71760108 4.09299506 8.40859388 4.0625 11.125 C4.05798828 11.87910156 4.05347656 12.63320313 4.04882812 13.41015625 C4.03703499 15.27347127 4.01909942 17.13674555 4 19 C3.01 19 2.02 19 1 19 C0.83168225 16.58343806 0.66528738 14.16676951 0.5 11.75 C0.45230469 11.06808594 0.40460938 10.38617187 0.35546875 9.68359375 C0.13521281 6.44268497 0 3.2506634 0 0 Z " fill="#979A9A" transform="translate(385,741)"/>
<path d="M0 0 C0.86625 0.3403125 0.86625 0.3403125 1.75 0.6875 C1.09 0.6875 0.43 0.6875 -0.25 0.6875 C-0.58 2.9975 -0.91 5.3075 -1.25 7.6875 C1.72 8.1825 1.72 8.1825 4.75 8.6875 C5.08 9.6775 5.41 10.6675 5.75 11.6875 C-1.53089888 12.17289326 -1.53089888 12.17289326 -4.75 10 C-6.55056348 7.2241313 -6.91499679 5.92935935 -6.25 2.6875 C-4.11319077 0.39806154 -3.15626895 -0.43837069 0 0 Z " fill="#A5A6A6" transform="translate(501.25,748.3125)"/>
<path d="M0 0 C1.32 0 2.64 0 4 0 C4.84761822 1.70129086 5.6774868 3.41143084 6.5 5.125 C6.9640625 6.07632813 7.428125 7.02765625 7.90625 8.0078125 C9.07748116 11.21196631 9.20076124 13.61717313 9 17 C5.66104309 14.30276454 4.3828381 10.67824588 2.8125 6.8125 C2.53986328 6.15830078 2.26722656 5.50410156 1.98632812 4.83007812 C1.31760202 3.22278908 0.65790075 1.61175038 0 0 Z " fill="#929494" transform="translate(566,739)"/>
<path d="M0 0 C0.66 1.32 1.32 2.64 2 4 C-2.09085807 6.9751695 -4.97361831 7.54833255 -10 7 C-12.4375 5.5 -12.4375 5.5 -14 4 C-13.34 4 -12.68 4 -12 4 C-11.67 3.34 -11.34 2.68 -11 2 C-10.67 2.33 -10.34 2.66 -10 3 C-5.2045846 3.50610907 -5.2045846 3.50610907 -1.0625 1.5 C-0.711875 1.005 -0.36125 0.51 0 0 Z " fill="#A0A2A3" transform="translate(412,753)"/>
<path d="M0 0 C1.31291016 -0.03867187 1.31291016 -0.03867187 2.65234375 -0.078125 C5.4818869 0.30709643 6.31382925 1.05694757 8.0625 3.25 C4.60027385 4.31723961 1.42210734 4.35173486 -2.1875 4.3125 C-3.26515625 4.30347656 -4.3428125 4.29445313 -5.453125 4.28515625 C-6.27296875 4.27355469 -7.0928125 4.26195312 -7.9375 4.25 C-7.6075 3.26 -7.2775 2.27 -6.9375 1.25 C-4.48367866 0.02308933 -2.73765897 0.04824069 0 0 Z " fill="#989A9A" transform="translate(503.9375,738.75)"/>
<path d="M0 0 C0.33 0 0.66 0 1 0 C1.33 8.25 1.66 16.5 2 25 C3.32 24.01 4.64 23.02 6 22 C6 25 6 25 4.125 27.1875 C2 29 2 29 0 29 C0 19.43 0 9.86 0 0 Z " fill="#E9E8E8" transform="translate(624,669)"/>
<path d="M0 0 C0.66 0 1.32 0 2 0 C2 2.31 2 4.62 2 7 C1.34 7 0.68 7 0 7 C-1.91610155 13.64248536 -2.56367091 20.11059329 -3 27 C-3.33 27 -3.66 27 -4 27 C-4.59066447 17.12277749 -3.13506713 9.3352222 0 0 Z " fill="#B0CF72" transform="translate(286,675)"/>
<path d="M0 0 C3.80195622 0.5431366 5.50130343 2.15665563 8 5 C9.4783226 7.95664519 9.06032783 10.74229737 9 14 C8.67 14 8.34 14 8 14 C8 12.35 8 10.7 8 9 C7.01 8.67 6.02 8.34 5 8 C2.3125 5.625 2.3125 5.625 0 3 C0 2.01 0 1.02 0 0 Z " fill="#A3A4A4" transform="translate(634,739)"/>
<path d="M0 0 C0.99 0 1.98 0 3 0 C3.72316406 -0.02320313 4.44632812 -0.04640625 5.19140625 -0.0703125 C5.97386719 -0.08835937 6.75632812 -0.10640625 7.5625 -0.125 C8.34753906 -0.14820313 9.13257813 -0.17140625 9.94140625 -0.1953125 C12 0 12 0 14 2 C10.3356845 4.442877 8.31446191 4.07844476 4 4 C3.01 4.495 3.01 4.495 2 5 C2 4.34 2 3.68 2 3 C1.34 3 0.68 3 0 3 C0 2.01 0 1.02 0 0 Z " fill="#A7A8A8" transform="translate(372,739)"/>
<path d="M0 0 C2.95025776 0.51232021 5.7372882 1.12025714 8.625 1.875 C9.42679687 2.07480469 10.22859375 2.27460937 11.0546875 2.48046875 C13.03908984 2.97656934 15.01991016 3.48695745 17 4 C17 4.33 17 4.66 17 5 C10.1781317 5.38614349 4.50422293 4.00865708 -2 2 C-1.34 1.34 -0.68 0.68 0 0 Z " fill="#B6D47C" transform="translate(332,754)"/>
<path d="M0 0 C0.78503906 0.00386719 1.57007813 0.00773438 2.37890625 0.01171875 C4.4375 0.3125 4.4375 0.3125 6.4375 2.3125 C2.8888865 4.67824234 1.8610475 4.42115265 -2.25 3.9375 C-3.74080078 3.77121094 -3.74080078 3.77121094 -5.26171875 3.6015625 C-6.02097656 3.50617187 -6.78023438 3.41078125 -7.5625 3.3125 C-5.1824966 0.41211 -3.72080722 -0.0796878 0 0 Z " fill="#A0A1A1" transform="translate(405.5625,738.6875)"/>
<path d="M0 0 C1.17755859 -0.00773438 1.17755859 -0.00773438 2.37890625 -0.015625 C4.4375 0.25 4.4375 0.25 6.4375 2.25 C3.4375 4.25 3.4375 4.25 0.9375 3.8125 C0.1125 3.626875 -0.7125 3.44125 -1.5625 3.25 C-2.5525 3.58 -3.5425 3.91 -4.5625 4.25 C-5.5525 3.59 -6.5425 2.93 -7.5625 2.25 C-4.42838698 0.16059132 -3.58799528 -0.02364412 0 0 Z " fill="#A3A4A4" transform="translate(452.5625,738.75)"/>
<path d="M0 0 C0.33 0 0.66 0 1 0 C1 1.65 1 3.3 1 5 C1.66 5 2.32 5 3 5 C3 7.97 3 10.94 3 14 C2.01 14 1.02 14 0 14 C0 9.38 0 4.76 0 0 Z " fill="#989B9C" transform="translate(665,746)"/>
<path d="M0 0 C5.28 0 10.56 0 16 0 C16 0.33 16 0.66 16 1 C15.28972656 1.04898438 14.57945312 1.09796875 13.84765625 1.1484375 C12.46900391 1.26058594 12.46900391 1.26058594 11.0625 1.375 C10.14597656 1.44460938 9.22945313 1.51421875 8.28515625 1.5859375 C7.53105469 1.72257813 6.77695313 1.85921875 6 2 C5.67 2.66 5.34 3.32 5 4 C4.34 3.67 3.68 3.34 3 3 C2.67 3.66 2.34 4.32 2 5 C1.34 3.35 0.68 1.7 0 0 Z " fill="#B3D179" transform="translate(249,650)"/>
<path d="M0 0 C0.33 0 0.66 0 1 0 C1.33 5.94 1.66 11.88 2 18 C2.66 17.67 3.32 17.34 4 17 C4.33 18.32 4.66 19.64 5 21 C2 21 2 21 0 20 C0 13.4 0 6.8 0 0 Z " fill="#B0B2B2" transform="translate(547,730)"/>
<path d="M0 0 C0.66 0 1.32 0 2 0 C2.93402724 5.41735797 3.20808081 8.80451575 1 14 C0.67 14 0.34 14 0 14 C0 9.38 0 4.76 0 0 Z " fill="#8F9191" transform="translate(470,739)"/>
<path d="M0 0 C0.99 0 1.98 0 3 0 C1.7874262 3.72433382 0.49140021 7.37802806 -1 11 C-1.66 11 -2.32 11 -3 11 C-2.53199289 6.94393835 -2.12046792 3.53411321 0 0 Z " fill="#959796" transform="translate(437,739)"/>
<path d="M0 0 C0.99 0.33 1.98 0.66 3 1 C1.87851562 1.70576172 1.87851562 1.70576172 0.734375 2.42578125 C-0.74289062 3.35970703 -0.74289062 3.35970703 -2.25 4.3125 C-3.22453125 4.92738281 -4.1990625 5.54226563 -5.203125 6.17578125 C-7.54733713 7.70475759 -9.78784032 9.28820977 -12 11 C-12 10.01 -12 9.02 -12 8 C-9.8828125 6.2109375 -9.8828125 6.2109375 -7.125 4.375 C-6.22007812 3.76398437 -5.31515625 3.15296875 -4.3828125 2.5234375 C-2 1 -2 1 0 0 Z " fill="#B3D278" transform="translate(315,646)"/>
<path d="M0 0 C3.875 1.75 3.875 1.75 5 4 C5.039992 5.99960012 5.04346799 8.00047242 5 10 C4.34 10 3.68 10 3 10 C1.68 7.03 0.36 4.06 -1 1 C-0.67 0.67 -0.34 0.34 0 0 Z " fill="#909392" transform="translate(458,741)"/>
<path d="M0 0 C0.66 0 1.32 0 2 0 C1.01 3.3 0.02 6.6 -1 10 C-1.33 8.68 -1.66 7.36 -2 6 C-3.32 6.33 -4.64 6.66 -6 7 C-5.25 5.0625 -5.25 5.0625 -4 3 C-1.875 2.25 -1.875 2.25 0 2 C0 1.34 0 0.68 0 0 Z " fill="#A3CA5E" transform="translate(293,668)"/>
<path d="M0 0 C2.375 0.25 2.375 0.25 5 1 C6.3125 3.0625 6.3125 3.0625 7 5 C6.34 5 5.68 5 5 5 C4.67 5.66 4.34 6.32 4 7 C3.34 6.01 2.68 5.02 2 4 C-1.06556598 3.26656572 -1.06556598 3.26656572 -4 3 C-2.68 2.67 -1.36 2.34 0 2 C0 1.34 0 0.68 0 0 Z " fill="#A2A4A4" transform="translate(677,739)"/>
<path d="M0 0 C0.66 0.99 1.32 1.98 2 3 C1.34 4.32 0.68 5.64 0 7 C-0.66 7 -1.32 7 -2 7 C-2 6.34 -2 5.68 -2 5 C-3.98 4.34 -5.96 3.68 -8 3 C-8 2.67 -8 2.34 -8 2 C-6.865625 1.855625 -5.73125 1.71125 -4.5625 1.5625 C-1.19222799 1.38828522 -1.19222799 1.38828522 0 0 Z " fill="#535557" transform="translate(554,711)"/>
<path d="M0 0 C0.66 0 1.32 0 2 0 C2.36923077 6.52307692 2.36923077 6.52307692 0.5 8.9375 C0.005 9.288125 -0.49 9.63875 -1 10 C-1.66 9.67 -2.32 9.34 -3 9 C-2.01 6.03 -1.02 3.06 0 0 Z " fill="#939797" transform="translate(640,748)"/>
<path d="M0 0 C3.375 0.25 3.375 0.25 7 1 C8.4375 3.0625 8.4375 3.0625 9 5 C5.58978257 4.21302675 2.31114834 3.12880057 -1 2 C-0.67 1.34 -0.34 0.68 0 0 Z " fill="#909292" transform="translate(608,739)"/>
<path d="M0 0 C0.99 0 1.98 0 3 0 C3 0.99 3 1.98 3 3 C3.99 2.34 4.98 1.68 6 1 C8.1875 1.375 8.1875 1.375 10 2 C9.34 2 8.68 2 8 2 C8 2.66 8 3.32 8 4 C5.5 5.625 5.5 5.625 3 7 C2.87625 6.030625 2.7525 5.06125 2.625 4.0625 C2.41875 3.051875 2.2125 2.04125 2 1 C1.34 0.67 0.68 0.34 0 0 Z " fill="#A9AAAA" transform="translate(470,738)"/>
<path d="M0 0 C0.66 0.33 1.32 0.66 2 1 C1.1875 2.9375 1.1875 2.9375 0 5 C-3.47325181 6.1577506 -6.36067448 6.06866652 -10 6 C-10 5.67 -10 5.34 -10 5 C-9.0925 4.9175 -8.185 4.835 -7.25 4.75 C-3.59922161 3.90751268 -2.36615417 2.82118382 0 0 Z " fill="#A0A3A4" transform="translate(536,754)"/>
<path d="M0 0 C3.3125 0.75 3.3125 0.75 6 2 C2.77484237 3.73662334 -0.51329166 4.8905928 -4 6 C-4.33 5.34 -4.66 4.68 -5 4 C-2.875 1.875 -2.875 1.875 0 0 Z " fill="#5B5D5F" transform="translate(601,707)"/>
<path d="M0 0 C1.5 1 1.5 1 3 3 C3.27345479 5.71846235 3.13491285 8.25677199 3 11 C2.34 11 1.68 11 1 11 C0.12132271 7.26562152 -0.08912219 3.83225427 0 0 Z " fill="#A5C960" transform="translate(281,663)"/>
<path d="M0 0 C0.99 0.33 1.98 0.66 3 1 C2.01 3.31 1.02 5.62 0 8 C-0.99 7.67 -1.98 7.34 -3 7 C-1.125 1.125 -1.125 1.125 0 0 Z " fill="#9DA0A0" transform="translate(585,739)"/>
<path d="M0 0 C2.4375 0.8125 2.4375 0.8125 5 2 C5.33 2.99 5.66 3.98 6 5 C2.7 4.34 -0.6 3.68 -4 3 C-2.68 2.67 -1.36 2.34 0 2 C0 1.34 0 0.68 0 0 Z " fill="#A7A9A9" transform="translate(532,739)"/>
<path d="M0 0 C2.0625 0.6875 2.0625 0.6875 5.0625 2.6875 C1.7625 3.0175 -1.5375 3.3475 -4.9375 3.6875 C-4.6075 2.6975 -4.2775 1.7075 -3.9375 0.6875 C-1.9375 -0.3125 -1.9375 -0.3125 0 0 Z " fill="#A8A9A9" transform="translate(500.9375,739.3125)"/>
<path d="M0 0 C1.98 0.495 1.98 0.495 4 1 C3.67 2.32 3.34 3.64 3 5 C1.68 4.67 0.36 4.34 -1 4 C-0.67 2.68 -0.34 1.36 0 0 Z " fill="#9DA1A2" transform="translate(359,755)"/>
<path d="M0 0 C0.556875 0.474375 1.11375 0.94875 1.6875 1.4375 C4.18346074 3.12395996 6.0446237 3.58953107 9 4 C8.01 4.99 7.02 5.98 6 7 C3.5625 6.3125 3.5625 6.3125 1 5 C0.1875 2.375 0.1875 2.375 0 0 Z " fill="#A3A4A5" transform="translate(473,753)"/>
<path d="M0 0 C0.66 0.66 1.32 1.32 2 2 C0.37660195 3.70884005 -1.29319053 5.37446717 -3 7 C-3.66 7 -4.32 7 -5 7 C-3.75023244 3.34683329 -3.32901247 2.21934164 0 0 Z " fill="#4A4C4E" transform="translate(352,710)"/>
<path d="M0 0 C1.9375 0.6875 1.9375 0.6875 4 2 C4.75 4.625 4.75 4.625 5 7 C2.36 5.35 -0.28 3.7 -3 2 C-2.01 1.34 -1.02 0.68 0 0 Z " fill="#A2C658" transform="translate(269,657)"/>
<path d="M0 0 C2.52588702 2.36292656 3.88820837 3.66462511 5 7 C3.0625 6.6875 3.0625 6.6875 1 6 C0.67 5.01 0.34 4.02 0 3 C-0.66 2.67 -1.32 2.34 -2 2 C-1.34 1.34 -0.68 0.68 0 0 Z " fill="#909393" transform="translate(554,746)"/>
<path d="M0 0 C0.66 0 1.32 0 2 0 C2 0.99 2 1.98 2 3 C3.65 2.34 5.3 1.68 7 1 C7 1.99 7 2.98 7 4 C5.35 4.66 3.7 5.32 2 6 C1.34 4.02 0.68 2.04 0 0 Z " fill="#9FA0A0" transform="translate(650,738)"/>
<path d="M0 0 C2.97 0.495 2.97 0.495 6 1 C6.33 1.99 6.66 2.98 7 4 C1.25 4.125 1.25 4.125 -1 3 C-0.67 2.01 -0.34 1.02 0 0 Z " fill="#A6A9A9" transform="translate(566,764)"/>
<path d="M0 0 C0.66 0.33 1.32 0.66 2 1 C1.67 2.32 1.34 3.64 1 5 C0.67 4.67 0.34 4.34 0 4 C-2.67058851 3.85884839 -5.32432238 3.95752893 -8 4 C-8 3.67 -8 3.34 -8 3 C-6.865625 2.690625 -5.73125 2.38125 -4.5625 2.0625 C-1.21224901 1.37075469 -1.21224901 1.37075469 0 0 Z " fill="#959899" transform="translate(509,755)"/>
<path d="M0 0 C0.33 0 0.66 0 1 0 C1.02698189 1.62490954 1.04638757 3.24994633 1.0625 4.875 C1.07410156 5.77992188 1.08570313 6.68484375 1.09765625 7.6171875 C1 10 1 10 0 12 C-1.32 11.67 -2.64 11.34 -4 11 C-2.68 10.34 -1.36 9.68 0 9 C0 6.03 0 3.06 0 0 Z " fill="#A6C861" transform="translate(452,391)"/>
<path d="M0 0 C1.32 0.33 2.64 0.66 4 1 C3.67 2.32 3.34 3.64 3 5 C2.01 5 1.02 5 0 5 C0 3.35 0 1.7 0 0 Z " fill="#989A9A" transform="translate(591,755)"/>
<path d="M0 0 C1.32 0.66 2.64 1.32 4 2 C4 3.32 4 4.64 4 6 C1 5 1 5 -0.1875 2.9375 C-0.5896875 1.9784375 -0.5896875 1.9784375 -1 1 C-0.67 0.67 -0.34 0.34 0 0 Z " fill="#909493" transform="translate(411,741)"/>
<path d="M0 0 C-1.15173355 2.46800047 -2.04783565 4.04783565 -4 6 C-4.99 5.34 -5.98 4.68 -7 4 C-2.25 0 -2.25 0 0 0 Z " fill="#9FC856" transform="translate(303,656)"/>
</svg>
